<?xml version="1.0" encoding="utf-8"?><svg width="auto" height="2220" style="overflow:visible " version="1.1" xmlns="http://www.w3.org/2000/svg"><rect x="20" y="20" width="200" height="40" style="fill:white;stroke:black;stroke-width:1" /><text x="30" y="30" font-size="10" style="fill:blue">xsl:stylesheet</text><text x="30" y="40" font-size="8" style="fill:black">version: 1.0</text><text x="30" y="50" font-size="8" style="fill:black">xmlns:xsl: http://www.w3.org/1999/XSL/Transform</text><rect x="240" y="20" width="200" height="40" style="fill:white;stroke:black;stroke-width:1" /><text x="250" y="30" font-size="10" style="fill:blue">xsl:output</text><path d="M220 40 C240 40 220 40 240 40" style="fill:transparent;stroke:black" /><text x="250" y="40" font-size="8" style="fill:black">method: html</text><text x="250" y="50" font-size="8" style="fill:black">version: 5.0</text><text x="250" y="60" font-size="8" style="fill:black">encoding: UTF-8</text><text x="250" y="70" font-size="8" style="fill:black">indent: yes</text><rect x="240" y="70" width="200" height="40" style="fill:white;stroke:black;stroke-width:1" /><text x="250" y="80" font-size="10" style="fill:blue">xsl:template</text><path d="M220 40 C240 40 220 90 240 90" style="fill:transparent;stroke:black" /><text x="250" y="90" font-size="8" style="fill:black">match: recetas</text><rect x="460" y="70" width="200" height="40" style="fill:white;stroke:black;stroke-width:1" /><text x="470" y="80" font-size="10" style="fill:blue">xsl:text</text><path d="M440 90 C460 90 440 90 460 90" style="fill:transparent;stroke:black" /><text x="470" y="90" font-size="8" style="fill:black">disable-output-escaping: yes</text><rect x="526" y="70" width="137" height="40" style="fill:green;stroke:black;stroke-width:1" /><text x="536" y="80" font-size="8" style="fill:white">&lt;!DOCTYPE html&gt;</text><rect x="460" y="120" width="200" height="40" style="fill:white;stroke:black;stroke-width:1" /><text x="470" y="130" font-size="10" style="fill:blue">html</text><path d="M440 90 C460 90 440 140 460 140" style="fill:transparent;stroke:black" /><text x="470" y="140" font-size="8" style="fill:black">lang: es</text><rect x="680" y="120" width="200" height="40" style="fill:white;stroke:black;stroke-width:1" /><text x="690" y="130" font-size="10" style="fill:blue">head</text><path d="M660 140 C680 140 660 140 680 140" style="fill:transparent;stroke:black" /><rect x="900" y="120" width="200" height="40" style="fill:white;stroke:black;stroke-width:1" /><text x="910" y="130" font-size="10" style="fill:blue">title</text><path d="M880 140 C900 140 880 140 900 140" style="fill:transparent;stroke:black" /><rect x="966" y="120" width="137" height="40" style="fill:green;stroke:black;stroke-width:1" /><text x="976" y="130" font-size="8" style="fill:white">Ejercicio 2 - Tarea 1</text><rect x="900" y="170" width="200" height="40" style="fill:white;stroke:black;stroke-width:1" /><text x="910" y="180" font-size="10" style="fill:blue">link</text><path d="M880 140 C900 140 880 190 900 190" style="fill:transparent;stroke:black" /><text x="910" y="190" font-size="8" style="fill:black">rel: stylesheet</text><text x="910" y="200" font-size="8" style="fill:black">type: text/css</text><text x="910" y="210" font-size="8" style="fill:black">href: estilo.css</text><rect x="680" y="270" width="200" height="40" style="fill:white;stroke:black;stroke-width:1" /><text x="690" y="280" font-size="10" style="fill:blue">body</text><path d="M660 140 C680 140 660 290 680 290" style="fill:transparent;stroke:black" /><rect x="900" y="270" width="200" height="40" style="fill:white;stroke:black;stroke-width:1" /><text x="910" y="280" font-size="10" style="fill:blue">xsl:for-each</text><path d="M880 290 C900 290 880 290 900 290" style="fill:transparent;stroke:black" /><text x="910" y="290" font-size="8" style="fill:black">select: receta</text><rect x="1120" y="270" width="200" height="40" style="fill:white;stroke:black;stroke-width:1" /><text x="1130" y="280" font-size="10" style="fill:blue">h1</text><path d="M1100 290 C1120 290 1100 290 1120 290" style="fill:transparent;stroke:black" /><rect x="1340" y="270" width="200" height="40" style="fill:white;stroke:black;stroke-width:1" /><text x="1350" y="280" font-size="10" style="fill:blue">xsl:value-of</text><path d="M1320 290 C1340 290 1320 290 1340 290" style="fill:transparent;stroke:black" /><text x="1350" y="290" font-size="8" style="fill:black">select: nombre</text><rect x="1120" y="370" width="200" height="40" style="fill:white;stroke:black;stroke-width:1" /><text x="1130" y="380" font-size="10" style="fill:blue">h2</text><path d="M1100 290 C1120 290 1100 390 1120 390" style="fill:transparent;stroke:black" /><rect x="1340" y="370" width="200" height="40" style="fill:white;stroke:black;stroke-width:1" /><text x="1350" y="380" font-size="10" style="fill:blue">xsl:value-of</text><path d="M1320 390 C1340 390 1320 390 1340 390" style="fill:transparent;stroke:black" /><text x="1350" y="390" font-size="8" style="fill:black">select: tipoPlato</text><rect x="1120" y="470" width="200" height="40" style="fill:white;stroke:black;stroke-width:1" /><text x="1130" y="480" font-size="10" style="fill:blue">p</text><path d="M1100 290 C1120 290 1100 490 1120 490" style="fill:transparent;stroke:black" /><rect x="1186" y="470" width="137" height="40" style="fill:green;stroke:black;stroke-width:1" /><text x="1196" y="480" font-size="8" style="fill:white">Ingredientes:</text><rect x="1120" y="520" width="200" height="40" style="fill:white;stroke:black;stroke-width:1" /><text x="1130" y="530" font-size="10" style="fill:blue">ul</text><path d="M1100 290 C1120 290 1100 540 1120 540" style="fill:transparent;stroke:black" /><rect x="1340" y="520" width="200" height="40" style="fill:white;stroke:black;stroke-width:1" /><text x="1350" y="530" font-size="10" style="fill:blue">xsl:for-each</text><path d="M1320 540 C1340 540 1320 540 1340 540" style="fill:transparent;stroke:black" /><text x="1350" y="540" font-size="8" style="fill:black">select: ingrediente</text><rect x="1560" y="520" width="200" height="40" style="fill:white;stroke:black;stroke-width:1" /><text x="1570" y="530" font-size="10" style="fill:blue">li</text><path d="M1540 540 C1560 540 1540 540 1560 540" style="fill:transparent;stroke:black" /><rect x="1780" y="520" width="200" height="40" style="fill:white;stroke:black;stroke-width:1" /><text x="1790" y="530" font-size="10" style="fill:blue">xsl:value-of</text><path d="M1760 540 C1780 540 1760 540 1780 540" style="fill:transparent;stroke:black" /><text x="1790" y="540" font-size="8" style="fill:black">select: @cantidad</text><rect x="1626" y="570" width="137" height="40" style="fill:green;stroke:black;stroke-width:1" /><text x="1636" y="580" font-size="8" style="fill:white"> </text><rect x="1780" y="570" width="200" height="40" style="fill:white;stroke:black;stroke-width:1" /><text x="1790" y="580" font-size="10" style="fill:blue">xsl:value-of</text><path d="M1760 540 C1780 540 1760 590 1780 590" style="fill:transparent;stroke:black" /><text x="1790" y="590" font-size="8" style="fill:black">select: @medida</text><rect x="1626" y="620" width="137" height="40" style="fill:green;stroke:black;stroke-width:1" /><text x="1636" y="630" font-size="8" style="fill:white"> de </text><rect x="1780" y="620" width="200" height="40" style="fill:white;stroke:black;stroke-width:1" /><text x="1790" y="630" font-size="10" style="fill:blue">xsl:value-of</text><path d="M1760 540 C1780 540 1760 640 1780 640" style="fill:transparent;stroke:black" /><text x="1790" y="640" font-size="8" style="fill:black">select: .</text><rect x="1120" y="820" width="200" height="40" style="fill:white;stroke:black;stroke-width:1" /><text x="1130" y="830" font-size="10" style="fill:blue">p</text><path d="M1100 290 C1120 290 1100 840 1120 840" style="fill:transparent;stroke:black" /><rect x="1186" y="820" width="137" height="40" style="fill:green;stroke:black;stroke-width:1" /><text x="1196" y="830" font-size="8" style="fill:white">Paso/s:</text><rect x="1120" y="870" width="200" height="40" style="fill:white;stroke:black;stroke-width:1" /><text x="1130" y="880" font-size="10" style="fill:blue">ul</text><path d="M1100 290 C1120 290 1100 890 1120 890" style="fill:transparent;stroke:black" /><rect x="1340" y="870" width="200" height="40" style="fill:white;stroke:black;stroke-width:1" /><text x="1350" y="880" font-size="10" style="fill:blue">xsl:for-each</text><path d="M1320 890 C1340 890 1320 890 1340 890" style="fill:transparent;stroke:black" /><text x="1350" y="890" font-size="8" style="fill:black">select: paso</text><rect x="1560" y="870" width="200" height="40" style="fill:white;stroke:black;stroke-width:1" /><text x="1570" y="880" font-size="10" style="fill:blue">li</text><path d="M1540 890 C1560 890 1540 890 1560 890" style="fill:transparent;stroke:black" /><rect x="1780" y="870" width="200" height="40" style="fill:white;stroke:black;stroke-width:1" /><text x="1790" y="880" font-size="10" style="fill:blue">xsl:value-of</text><path d="M1760 890 C1780 890 1760 890 1780 890" style="fill:transparent;stroke:black" /><text x="1790" y="890" font-size="8" style="fill:black">select: .</text><rect x="1120" y="1070" width="200" height="40" style="fill:white;stroke:black;stroke-width:1" /><text x="1130" y="1080" font-size="10" style="fill:blue">p</text><path d="M1100 290 C1120 290 1100 1090 1120 1090" style="fill:transparent;stroke:black" /><rect x="1186" y="1070" width="137" height="40" style="fill:green;stroke:black;stroke-width:1" /><text x="1196" y="1080" font-size="8" style="fill:white">Útiles necesarios:</text><rect x="1120" y="1120" width="200" height="40" style="fill:white;stroke:black;stroke-width:1" /><text x="1130" y="1130" font-size="10" style="fill:blue">ul</text><path d="M1100 290 C1120 290 1100 1140 1120 1140" style="fill:transparent;stroke:black" /><rect x="1340" y="1120" width="200" height="40" style="fill:white;stroke:black;stroke-width:1" /><text x="1350" y="1130" font-size="10" style="fill:blue">xsl:for-each</text><path d="M1320 1140 C1340 1140 1320 1140 1340 1140" style="fill:transparent;stroke:black" /><text x="1350" y="1140" font-size="8" style="fill:black">select: elementoUtilizado</text><rect x="1560" y="1120" width="200" height="40" style="fill:white;stroke:black;stroke-width:1" /><text x="1570" y="1130" font-size="10" style="fill:blue">li</text><path d="M1540 1140 C1560 1140 1540 1140 1560 1140" style="fill:transparent;stroke:black" /><rect x="1780" y="1120" width="200" height="40" style="fill:white;stroke:black;stroke-width:1" /><text x="1790" y="1130" font-size="10" style="fill:blue">xsl:value-of</text><path d="M1760 1140 C1780 1140 1760 1140 1780 1140" style="fill:transparent;stroke:black" /><text x="1790" y="1140" font-size="8" style="fill:black">select: .</text><rect x="1120" y="1320" width="200" height="40" style="fill:white;stroke:black;stroke-width:1" /><text x="1130" y="1330" font-size="10" style="fill:blue">p</text><path d="M1100 290 C1120 290 1100 1340 1120 1340" style="fill:transparent;stroke:black" /><rect x="1186" y="1320" width="137" height="40" style="fill:green;stroke:black;stroke-width:1" /><text x="1196" y="1330" font-size="8" style="fill:white">Tiempo necesario: </text><rect x="1340" y="1320" width="200" height="40" style="fill:white;stroke:black;stroke-width:1" /><text x="1350" y="1330" font-size="10" style="fill:blue">xsl:value-of</text><path d="M1320 1340 C1340 1340 1320 1340 1340 1340" style="fill:transparent;stroke:black" /><text x="1350" y="1340" font-size="8" style="fill:black">select: tiempoElaboracion</text><rect x="1186" y="1370" width="137" height="40" style="fill:green;stroke:black;stroke-width:1" /><text x="1196" y="1380" font-size="8" style="fill:white"> min</text><rect x="1120" y="1420" width="200" height="40" style="fill:white;stroke:black;stroke-width:1" /><text x="1130" y="1430" font-size="10" style="fill:blue">p</text><path d="M1100 290 C1120 290 1100 1440 1120 1440" style="fill:transparent;stroke:black" /><rect x="1186" y="1420" width="137" height="40" style="fill:green;stroke:black;stroke-width:1" /><text x="1196" y="1430" font-size="8" style="fill:white">Origen: </text><rect x="1340" y="1420" width="200" height="40" style="fill:white;stroke:black;stroke-width:1" /><text x="1350" y="1430" font-size="10" style="fill:blue">xsl:value-of</text><path d="M1320 1440 C1340 1440 1320 1440 1340 1440" style="fill:transparent;stroke:black" /><text x="1350" y="1440" font-size="8" style="fill:black">select: origen</text><rect x="1120" y="1520" width="200" height="40" style="fill:white;stroke:black;stroke-width:1" /><text x="1130" y="1530" font-size="10" style="fill:blue">p</text><path d="M1100 290 C1120 290 1100 1540 1120 1540" style="fill:transparent;stroke:black" /><rect x="1186" y="1520" width="137" height="40" style="fill:green;stroke:black;stroke-width:1" /><text x="1196" y="1530" font-size="8" style="fill:white">Nivel de complejidad: </text><rect x="1340" y="1520" width="200" height="40" style="fill:white;stroke:black;stroke-width:1" /><text x="1350" y="1530" font-size="10" style="fill:blue">xsl:value-of</text><path d="M1320 1540 C1340 1540 1320 1540 1340 1540" style="fill:transparent;stroke:black" /><text x="1350" y="1540" font-size="8" style="fill:black">select: dificultad</text><rect x="1120" y="1620" width="200" height="40" style="fill:white;stroke:black;stroke-width:1" /><text x="1130" y="1630" font-size="10" style="fill:blue">p</text><path d="M1100 290 C1120 290 1100 1640 1120 1640" style="fill:transparent;stroke:black" /><rect x="1186" y="1620" width="137" height="40" style="fill:green;stroke:black;stroke-width:1" /><text x="1196" y="1630" font-size="8" style="fill:white">Calorías: </text><rect x="1340" y="1620" width="200" height="40" style="fill:white;stroke:black;stroke-width:1" /><text x="1350" y="1630" font-size="10" style="fill:blue">xsl:value-of</text><path d="M1320 1640 C1340 1640 1320 1640 1340 1640" style="fill:transparent;stroke:black" /><text x="1350" y="1640" font-size="8" style="fill:black">select: calorias</text><rect x="1186" y="1670" width="137" height="40" style="fill:green;stroke:black;stroke-width:1" /><text x="1196" y="1680" font-size="8" style="fill:white">kcal</text><rect x="900" y="1770" width="200" height="40" style="fill:white;stroke:black;stroke-width:1" /><text x="910" y="1780" font-size="10" style="fill:blue">footer</text><path d="M880 290 C900 290 880 1790 900 1790" style="fill:transparent;stroke:black" /><rect x="1120" y="1770" width="200" height="40" style="fill:white;stroke:black;stroke-width:1" /><text x="1130" y="1780" font-size="10" style="fill:blue">a</text><path d="M1100 1790 C1120 1790 1100 1790 1120 1790" style="fill:transparent;stroke:black" /><text x="1130" y="1790" font-size="8" style="fill:black">href: https://validator.w3.org/check?uri=referer</text><rect x="1340" y="1770" width="200" height="40" style="fill:white;stroke:black;stroke-width:1" /><text x="1350" y="1780" font-size="10" style="fill:blue">img</text><path d="M1320 1790 C1340 1790 1320 1790 1340 1790" style="fill:transparent;stroke:black" /><text x="1350" y="1790" font-size="8" style="fill:black">src: https://www.w3.org/html/logo/badge/html5-badge-h-solo.png</text><text x="1350" y="1800" font-size="8" style="fill:black">alt: HTML5 Válido</text><text x="1350" y="1810" font-size="8" style="fill:black">title: HTML5 Válido</text><text x="1350" y="1820" font-size="8" style="fill:black">height: 64</text><text x="1350" y="1830" font-size="8" style="fill:black">width: 63</text><rect x="1120" y="1870" width="200" height="40" style="fill:white;stroke:black;stroke-width:1" /><text x="1130" y="1880" font-size="10" style="fill:blue">a</text><path d="M1100 1790 C1120 1790 1100 1890 1120 1890" style="fill:transparent;stroke:black" /><text x="1130" y="1890" font-size="8" style="fill:black">href:  http://jigsaw.w3.org/css-validator/check/referer </text><rect x="1340" y="1870" width="200" height="40" style="fill:white;stroke:black;stroke-width:1" /><text x="1350" y="1880" font-size="10" style="fill:blue">img</text><path d="M1320 1890 C1340 1890 1320 1890 1340 1890" style="fill:transparent;stroke:black" /><text x="1350" y="1890" font-size="8" style="fill:black">src:  http://jigsaw.w3.org/css-validator/images/vcss</text><text x="1350" y="1900" font-size="8" style="fill:black">alt: Valid CSS!</text><text x="1350" y="1910" font-size="8" style="fill:black">height: 31</text><text x="1350" y="1920" font-size="8" style="fill:black">width: 88</text></svg>